<svg xmlns="http://www.w3.org/2000/svg" width="60" height="50" viewBox="0 0 60 50">
  <path fill="#3C3C44" fill-rule="evenodd" d="M41.4479562,0 C34.6646715,0 29.1654745,5.60558036 29.1654745,12.5196429 C29.1654745,13.5008929 29.2740876,14.45625 29.4834307,15.3727679 C19.2757664,14.8506696 10.2256204,9.86629464 4.16759124,2.29151786 C3.11036496,4.14084821 2.50489051,6.29129464 2.50489051,8.5859375 C2.50489051,12.9292411 4.67321168,16.7616071 7.96883212,19.0066964 C5.95554745,18.9417411 4.06160584,18.3785714 2.40569343,17.440625 C2.40481752,17.4930804 2.40459854,17.5453125 2.40459854,17.5982143 C2.40459854,23.6642857 6.63832117,28.7245536 12.2570803,29.8745536 C11.2263504,30.1604911 10.1413139,30.3136161 9.02124088,30.3136161 C8.22963504,30.3136161 7.46014599,30.2350446 6.71036496,30.0890625 C8.27321168,35.0629464 12.8091241,38.6828125 18.1837226,38.7839286 C13.980219,42.1417411 8.68423358,44.1433036 2.92992701,44.1433036 C1.93861314,44.1433036 0.960875912,44.0839286 0,43.9685268 C5.43547445,47.5207589 11.8916058,49.5933036 18.8277372,49.5933036 C41.4194891,49.5933036 53.7733577,30.5158482 53.7733577,13.9712054 C53.7733577,13.4285714 53.7613139,12.8886161 53.7378832,12.3517857 C56.1374453,10.5863839 58.219708,8.38125 59.8664234,5.87053571 C57.6637226,6.86629464 55.2967883,7.53950893 52.8120438,7.84196429 C55.3480292,6.29263393 57.2956204,3.8390625 58.2124818,0.915401786 C55.8394161,2.35022321 53.2108029,3.3921875 50.4131387,3.95379464 C48.1727737,1.5203125 44.9805109,0 41.4479562,0"/>
</svg>
