<svg xmlns="http://www.w3.org/2000/svg" width="60" height="60" viewBox="0 0 60 60" xmlns:xlink="http://www.w3.org/1999/xlink">
  <defs>
    <polygon id="a" points="0 59.993 59.981 59.993 59.981 .019 0 .019"/>
  </defs>
  <g fill="none" fill-rule="evenodd">
    <mask id="b" fill="white">
      <use xlink:href="#a"/>
    </mask>
    <path fill="#3C3C44" d="M29.9905952,0.0189285714 C21.8455952,0.0189285714 20.8242857,0.053452381 17.6254762,0.199404762 C14.4333333,0.345 12.2532143,0.85202381 10.3455952,1.59345238 C8.37345238,2.3597619 6.70095238,3.3852381 5.03357143,5.0525 C3.36630952,6.71988095 2.34083333,8.39238095 1.57452381,10.3645238 C0.833095238,12.2721429 0.326071429,14.4522619 0.18047619,17.6444048 C0.0345238095,20.8432143 0,21.8645238 0,30.0095238 C0,38.1544048 0.0345238095,39.1757143 0.18047619,42.3745238 C0.326071429,45.5666667 0.833095238,47.7467857 1.57452381,49.6544048 C2.34083333,51.6265476 3.36630952,53.2990476 5.03357143,54.9664286 C6.70095238,56.6336905 8.37345238,57.6591667 10.3455952,58.4255952 C12.2532143,59.1669048 14.4333333,59.6739286 17.6254762,59.8195238 C20.8242857,59.9654762 21.8455952,60 29.9905952,60 C38.1354762,60 39.1567857,59.9654762 42.3555952,59.8195238 C45.5477381,59.6739286 47.7278571,59.1669048 49.6354762,58.4255952 C51.607619,57.6591667 53.280119,56.6336905 54.9475,54.9664286 C56.6147619,53.2990476 57.6402381,51.6265476 58.4066667,49.6544048 C59.1479762,47.7467857 59.655,45.5666667 59.8005952,42.3745238 C59.9465476,39.1757143 59.9810714,38.1544048 59.9810714,30.0095238 C59.9810714,21.8645238 59.9465476,20.8432143 59.8005952,17.6444048 C59.655,14.4522619 59.1479762,12.2721429 58.4066667,10.3645238 C57.6402381,8.39238095 56.6147619,6.71988095 54.9475,5.0525 C53.280119,3.3852381 51.607619,2.3597619 49.6354762,1.59345238 C47.7278571,0.85202381 45.5477381,0.345 42.3555952,0.199404762 C39.1567857,0.053452381 38.1354762,0.0189285714 29.9905952,0.0189285714 L29.9905952,0.0189285714 Z M29.9905952,5.42261905 C37.9983333,5.42261905 38.9469048,5.45321429 42.1092857,5.5975 C45.0333333,5.73083333 46.6213095,6.21940476 47.6780952,6.63011905 C49.0779762,7.17416667 50.0770238,7.82404762 51.1264286,8.87357143 C52.1759524,9.92297619 52.8258333,10.9220238 53.369881,12.3219048 C53.7805952,13.3786905 54.2691667,14.9666667 54.4025,17.8907143 C54.5467857,21.0530952 54.577381,22.0016667 54.577381,30.0095238 C54.577381,38.0172619 54.5467857,38.9658333 54.4025,42.1282143 C54.2691667,45.0522619 53.7805952,46.6402381 53.369881,47.6970238 C52.8258333,49.0969048 52.1759524,50.0959524 51.1264286,51.1453571 C50.0770238,52.194881 49.0779762,52.8447619 47.6780952,53.3888095 C46.6213095,53.7995238 45.0333333,54.2880952 42.1092857,54.4214286 C38.947381,54.5657143 37.9989286,54.5963095 29.9905952,54.5963095 C21.9821429,54.5963095 21.0338095,54.5657143 17.8717857,54.4214286 C14.9477381,54.2880952 13.3597619,53.7995238 12.3029762,53.3888095 C10.9030952,52.8447619 9.90404762,52.194881 8.85464286,51.1453571 C7.8052381,50.0959524 7.1552381,49.0969048 6.61119048,47.6970238 C6.20047619,46.6402381 5.71190476,45.0522619 5.57857143,42.1282143 C5.43428571,38.9658333 5.40369048,38.0172619 5.40369048,30.0095238 C5.40369048,22.0016667 5.43428571,21.0530952 5.57857143,17.8907143 C5.71190476,14.9666667 6.20047619,13.3786905 6.61119048,12.3219048 C7.1552381,10.9220238 7.80511905,9.92297619 8.85464286,8.87357143 C9.90404762,7.82404762 10.9030952,7.17416667 12.3029762,6.63011905 C13.3597619,6.21940476 14.9477381,5.73083333 17.8717857,5.5975 C21.0341667,5.45321429 21.9827381,5.42261905 29.9905952,5.42261905 L29.9905952,5.42261905 Z" mask="url(#b)"/>
    <path fill="#3C3C44" d="M29.9905952 40.0063095C24.4694048 40.0063095 19.9936905 35.5305952 19.9936905 30.0095238 19.9936905 24.4883333 24.4694048 20.012619 29.9905952 20.012619 35.5116667 20.012619 39.987381 24.4883333 39.987381 30.0095238 39.987381 35.5305952 35.5116667 40.0063095 29.9905952 40.0063095L29.9905952 40.0063095zM29.9905952 14.6089286C21.485 14.6089286 14.59 21.5039286 14.59 30.0095238 14.59 38.515 21.485 45.41 29.9905952 45.41 38.4960714 45.41 45.3910714 38.515 45.3910714 30.0095238 45.3910714 21.5039286 38.4960714 14.6089286 29.9905952 14.6089286L29.9905952 14.6089286zM49.5984524 14.0004762C49.5984524 15.9880952 47.9871429 17.5992857 45.9995238 17.5992857 44.0120238 17.5992857 42.4007143 15.9880952 42.4007143 14.0004762 42.4007143 12.0128571 44.0120238 10.4015476 45.9995238 10.4015476 47.9871429 10.4015476 49.5984524 12.0128571 49.5984524 14.0004762"/>
  </g>
</svg>
