<svg xmlns="http://www.w3.org/2000/svg" width="26" height="37" viewBox="0 0 26 37">
  <g fill="none" transform="translate(2 2)">
    <path class="ob_Icon__cutout" fill="#45C0FF" d="M23.4965499,28.7979451 L23.605371,30.3996236 L19.5,30.3996236 L19.5,34.5 L6.5,34.5 L6.5,30.3996236 L2.39462896,30.3996236 L2.50345014,28.7979451 C3.00417263,21.428089 3.66543348,18.5658928 5.75698499,15.4506033 C4.94310144,14.1287387 4.5,12.5971191 4.5,11 C4.5,6.30557963 8.30557963,2.5 13,2.5 C17.6944204,2.5 21.5,6.30557963 21.5,11 C21.5,12.5971191 21.0568986,14.1287387 20.243015,15.4506033 C22.3345665,18.5658928 22.9958274,21.428089 23.4965499,28.7979451 Z"/>
    <path class="ob_Icon__shadow" fill="#FFF" d="M17.243015,12.4506033 C19.3345665,15.5658928 19.9958274,18.428089 20.4965499,25.7979451 L20.605371,27.3996236 L16.5,27.3996236 L16.5,31.5 L3.5,31.5 L3.5,27.3996236 L-0.605371042,27.3996236 L-0.496549857,25.7979451 C0.00417263223,18.428089 0.665433476,15.5658928 2.75698499,12.4506033 C1.94310144,11.1287387 1.5,9.59711911 1.5,8 C1.5,3.30557963 5.30557963,-0.5 10,-0.5 C14.6944204,-0.5 18.5,3.30557963 18.5,8 C18.5,9.59711911 18.0568986,11.1287387 17.243015,12.4506033 Z"/>
    <path fill="#3F3F3F" d="M13.199225,12.3412586 L12.5018326,11.3992882 L13.2471872,10.4947934 C14.0530463,9.51687576 14.5,8.29477353 14.5,7 C14.5,3.96243388 12.0375661,1.5 9,1.5 C5.96243388,1.5 3.5,3.96243388 3.5,7 C3.5,8.29477353 3.94695373,9.51687576 4.75281282,10.4947934 L5.4981674,11.3992882 L4.80077496,12.3412586 C2.76974103,15.0845831 2.10722643,17.1294025 1.6133519,23.3996236 L5.5,23.3996236 L5.5,27.5 L12.5,27.5 L12.5,23.3996236 L16.3866481,23.3996236 C15.8927736,17.1294025 15.230259,15.0845831 13.199225,12.3412586 Z M19.4965499,24.7979451 L19.605371,26.3996236 L15.5,26.3996236 L15.5,30.5 L2.5,30.5 L2.5,26.3996236 L-1.60537104,26.3996236 L-1.49654986,24.7979451 C-0.995827368,17.428089 -0.334566524,14.5658928 1.75698499,11.4506033 C0.943101435,10.1287387 0.5,8.59711911 0.5,7 C0.5,2.30557963 4.30557963,-1.5 9,-1.5 C13.6944204,-1.5 17.5,2.30557963 17.5,7 C17.5,8.59711911 17.0568986,10.1287387 16.243015,11.4506033 C18.3345665,14.5658928 18.9958274,17.428089 19.4965499,24.7979451 Z"/>
    <path fill="#3F3F3F" d="M9,15.5 C4.30557963,15.5 0.5,11.6944204 0.5,7 C0.5,2.30557963 4.30557963,-1.5 9,-1.5 C13.6944204,-1.5 17.5,2.30557963 17.5,7 C17.5,11.6944204 13.6944204,15.5 9,15.5 Z M9,12.5 C12.0375661,12.5 14.5,10.0375661 14.5,7 C14.5,3.96243388 12.0375661,1.5 9,1.5 C5.96243388,1.5 3.5,3.96243388 3.5,7 C3.5,10.0375661 5.96243388,12.5 9,12.5 Z"/>
  </g>
</svg>
