<svg xmlns="http://www.w3.org/2000/svg" xmlns:xlink="http://www.w3.org/1999/xlink" width="302" height="302" viewBox="0 0 302 302">
  <defs>
    <circle id="portrait_placeholder-a" cx="150" cy="150" r="150"/>
  </defs>
  <g fill="none" fill-rule="evenodd" transform="translate(1 1)">
    <mask id="portrait_placeholder-b" fill="#fff">
      <use xlink:href="#portrait_placeholder-a"/>
    </mask>
    <use fill="#D8D8D8" stroke="#979797" stroke-width="2" xlink:href="#portrait_placeholder-a"/>
    <path fill="#000" d="M-3.4844738,315.324225 L-3.4844738,287.275106 C-3.4844738,287.275106 -1.65910433,270.056928 19.0760977,264.714535 C19.0760977,264.714535 52.4707191,252.521564 78.6260557,241.137105 C92.1530697,235.253631 95.0637099,231.71795 108.708891,225.688322 C108.708891,225.688322 110.133114,218.682262 109.620021,214.51221 L120.292368,214.51221 C120.292368,214.51221 122.730341,215.933324 120.292368,199.470792 C120.292368,199.470792 107.284667,196.019071 106.678284,169.798432 C106.678284,169.798432 96.9077373,173.08845 96.3106829,157.198096 C95.9033177,146.42624 87.5694332,137.075497 99.5633856,129.354215 L93.4653455,112.891684 C93.4653455,112.891684 81.272375,46.4320647 116.330664,56.187063 C101.541128,38.5055455 200.167053,20.8271376 206.57295,76.9191554 C206.57295,76.9191554 211.141038,107.204118 206.57295,127.933101 C206.57295,127.933101 220.976887,126.266324 211.346275,153.951613 C211.346275,153.951613 206.062966,173.868975 197.931209,169.397286 C197.931209,169.397286 199.259033,194.597957 186.45346,198.870628 C186.45346,198.870628 187.36459,212.282585 187.36459,213.196824 L199.56378,215.025303 C199.56378,215.025303 197.729081,226.002397 199.868526,227.218274 C199.868526,227.218274 214.331547,237.125645 231.571493,241.550689 C264.804413,250.080482 304.129152,264.717644 304.129152,277.523218 C304.129152,277.523218 307.484474,294.595242 307.484474,315.324225 L-3.4844738,315.324225 L-3.4844738,315.324225 Z" mask="url(#portrait_placeholder-b)"/>
  </g>
</svg>
